<svg width="128" height="44" viewBox="0 0 128 44" fill="none" xmlns="http://www.w3.org/2000/svg">
<path d="M3.03547 11.8505C6.36347 8.70536 11.6298 5.99907 16.2378 7.82764C19.3098 9.10764 20.0412 12.5819 19.7852 15.5442C19.456 19.5671 17.408 23.6265 14.7383 26.6254C13.056 28.5271 9.80119 31.2334 7.05833 31.0871C6.40004 31.0505 5.70519 31.1236 5.12004 31.4528C5.01033 31.5259 4.13262 32.0379 4.75433 32.0745C8.19204 32.2574 11.7029 30.6116 14.4823 28.7099C18.9806 25.6014 21.9429 20.1888 22.528 14.8128C23.0035 10.4608 20.8092 6.87678 16.3475 6.32821C10.8252 5.63336 4.49833 8.41279 0.548615 12.1431C0.0731868 12.6185 2.59662 12.2528 3.03547 11.8505ZM3.62062 31.2334C5.01033 23.7362 7.02176 15.4345 11.3006 8.96136C11.4103 8.81507 9.03319 8.85164 8.59433 9.50993C4.31547 16.0196 2.26747 24.3579 0.877758 31.9648C0.841187 32.1111 3.47433 32.0014 3.62062 31.2334Z" fill="url(#paint0_linear_3809_68339)"/>
<path d="M35.5652 16.6414C36.6258 16.9705 36.8086 18.2871 36.6989 19.3111C36.6623 19.7134 39.4418 19.3111 39.4418 18.5796C39.4418 17.8482 39.4052 17.1168 38.9663 16.4951C36.9183 13.4962 30.9572 16.3488 29.348 18.2871C29.6406 17.4094 29.9698 16.5316 30.2989 15.6539C30.4452 15.2516 29.3846 15.4345 29.2383 15.4711C28.8726 15.5442 28.5435 15.6539 28.2143 15.8002C28.068 15.8734 27.7023 16.0196 27.6292 16.1659C25.764 21.3225 24.228 26.5522 23.1309 31.9282C23.0578 32.3305 25.6543 32.0745 25.8738 31.3065C26.8612 27.9419 27.9218 24.5408 29.5675 21.4322C29.9332 20.7374 30.3355 20.0425 30.8109 19.3476C32.676 16.7145 34.6143 16.3488 35.5652 16.6414Z" fill="url(#paint1_linear_3809_68339)"/>
<path d="M54.1966 27.7225C52.1852 29.4779 49.6983 31.3065 46.8823 31.0505C45.1635 30.9042 43.7006 29.8802 43.0789 28.2711C41.616 24.3579 46.0778 19.4208 49.0766 17.5922C51.0515 16.3488 54.7818 16.2025 54.6355 19.3842C54.4526 23.4071 48.9669 24.6505 45.8949 25.0162C45.2732 25.0894 42.896 26.1865 44.688 25.9671C48.9303 25.4916 56.1715 24.1751 57.3418 19.0916C58.4389 14.2642 50.9783 15.8734 48.784 16.7511C44.5052 18.3968 37.52 25.3088 40.9578 30.1728C42.3475 32.1476 45.1269 32.2574 47.248 31.9648C50.7955 31.5259 54.0138 29.7339 56.6835 27.4299C57.1589 26.9911 54.6721 27.3202 54.1966 27.7225Z" fill="url(#paint2_linear_3809_68339)"/>
<path d="M75.4038 16.2391C69.9546 14.7396 64.542 17.5191 61.1409 21.7248C59.2026 24.1385 57.0449 28.5271 60.0072 31.0505C62.8598 33.4276 67.9798 30.3922 70.2106 28.6368C70.8689 28.1614 71.4541 27.6494 72.0026 27.1008C71.8929 28.7099 72.0758 30.3191 72.5146 31.8916C72.6609 32.4402 75.4038 31.6722 75.2575 31.1602C74.4529 28.4174 74.6358 25.6014 75.3306 22.8585C76.5375 20.8471 77.3786 18.6162 77.9272 16.2025C77.9638 15.9831 75.4769 16.2756 75.2209 16.8242C74.1603 19.0185 73.1363 21.3591 72.5512 23.7362C72.2952 24.2116 71.966 24.6505 71.6369 25.0894C70.0643 27.1739 65.6392 32.3305 62.6403 30.1728C60.8118 28.8562 61.1775 26.0402 61.9089 24.2848C62.6769 22.4196 64.1032 20.7008 65.566 19.3111C67.7603 17.2265 70.174 16.4219 73.1363 17.2265C73.7215 17.4094 76.0986 16.4585 75.4038 16.2391Z" fill="url(#paint3_linear_3809_68339)"/>
<path d="M104.945 17.0436C105.53 17.5922 105.786 18.9454 105.822 19.9694C105.895 21.6151 105.566 23.2974 105.201 24.9431C104.652 27.2471 103.921 29.6242 103.079 31.8185C102.933 32.2208 103.921 32.1111 104.177 32.0745C104.689 32.0014 105.603 31.8185 105.786 31.3065C106.371 29.7339 106.919 28.0151 107.358 26.4059C107.834 24.7968 108.199 23.1876 108.419 21.5785C108.675 19.6036 108.894 16.3488 106.517 15.5076C105.786 15.2516 105.018 15.2882 104.25 15.3614C103.189 15.4345 102.129 15.7271 101.178 16.1659C99.6783 16.8242 98.4715 17.8482 97.4109 19.1282C97.1915 19.4208 96.972 19.6768 96.7892 19.9694C96.7892 19.6036 96.7526 19.2745 96.716 18.9088C96.5698 17.8848 96.2772 16.8608 95.5092 16.1294C94.5949 15.2516 93.1321 15.2151 91.9618 15.3979C90.0601 15.6539 88.2315 16.3854 86.732 17.5922C85.8909 18.3236 85.1229 19.1648 84.428 20.0791C84.9035 18.5796 85.3789 17.1168 85.8909 15.6539C86.0372 15.2516 85.0863 15.3979 84.8303 15.4711C84.5012 15.5442 84.1355 15.6539 83.8063 15.8002C83.66 15.8734 83.2943 16.0196 83.2212 16.1659C81.356 21.2859 79.9663 26.6254 78.9423 31.9648C78.8692 32.2939 80.2589 32.0014 81.0635 31.7088C81.3926 31.5991 81.612 31.4528 81.6486 31.3065C82.636 27.9054 83.9526 24.5042 85.8178 21.4322C86.7686 19.9328 88.2315 18.0311 89.548 17.0436C90.6086 16.2391 92.0349 16.1294 92.9492 17.0436C93.6441 17.8116 93.9001 18.8722 93.9732 19.8596C94.1195 21.2128 93.9732 22.5659 93.7538 23.8825C93.4246 25.6745 92.9492 27.3202 92.3641 29.1854L91.5229 31.8916C91.4863 32.0379 91.5961 32.0745 91.7423 32.1111C92.2543 32.1842 94.0463 31.9282 94.2292 31.3431C94.9606 29.1488 95.3995 27.4299 96.3503 25.2356C97.0818 23.5168 97.9229 21.7979 98.9103 20.2254C100.3 18.0676 103.299 15.5076 104.945 17.0436Z" fill="url(#paint4_linear_3809_68339)"/>
<path d="M123.304 27.7225C121.292 29.4779 118.805 31.3065 115.989 31.0505C114.271 30.9042 112.808 29.8802 112.186 28.2711C110.723 24.3579 115.185 19.4208 118.184 17.5922C120.159 16.3488 123.889 16.2025 123.743 19.3842C123.56 23.4071 118.074 24.6505 115.002 25.0162C114.38 25.0894 112.003 26.1865 113.795 25.9671C118.037 25.4916 125.279 24.1751 126.449 19.0916C127.546 14.2642 120.085 15.8734 117.891 16.7511C113.612 18.3968 106.627 25.3088 110.065 30.1728C111.455 32.1476 114.234 32.2574 116.355 31.9648C119.903 31.5259 123.121 29.7339 125.791 27.4299C126.266 26.9911 123.779 27.3202 123.304 27.7225Z" fill="url(#paint5_linear_3809_68339)"/>
<defs>
<linearGradient id="paint0_linear_3809_68339" x1="1.46567e-07" y1="6.00012" x2="17" y2="32.0001" gradientUnits="userSpaceOnUse">
<stop stop-color="#6B4CFF"/>
<stop offset="1" stop-color="#222222"/>
</linearGradient>
<linearGradient id="paint1_linear_3809_68339" x1="1.46567e-07" y1="6.00012" x2="17" y2="32.0001" gradientUnits="userSpaceOnUse">
<stop stop-color="#6B4CFF"/>
<stop offset="1" stop-color="#222222"/>
</linearGradient>
<linearGradient id="paint2_linear_3809_68339" x1="1.46567e-07" y1="6.00012" x2="17" y2="32.0001" gradientUnits="userSpaceOnUse">
<stop stop-color="#6B4CFF"/>
<stop offset="1" stop-color="#222222"/>
</linearGradient>
<linearGradient id="paint3_linear_3809_68339" x1="1.46567e-07" y1="6.00012" x2="17" y2="32.0001" gradientUnits="userSpaceOnUse">
<stop stop-color="#6B4CFF"/>
<stop offset="1" stop-color="#222222"/>
</linearGradient>
<linearGradient id="paint4_linear_3809_68339" x1="1.46567e-07" y1="6.00012" x2="17" y2="32.0001" gradientUnits="userSpaceOnUse">
<stop stop-color="#6B4CFF"/>
<stop offset="1" stop-color="#222222"/>
</linearGradient>
<linearGradient id="paint5_linear_3809_68339" x1="1.46567e-07" y1="6.00012" x2="17" y2="32.0001" gradientUnits="userSpaceOnUse">
<stop stop-color="#6B4CFF"/>
<stop offset="1" stop-color="#222222"/>
</linearGradient>
</defs>
</svg>
