<?xml version="1.0" standalone="no"?>
<!DOCTYPE svg PUBLIC "-//W3C//DTD SVG 20010904//EN"
 "http://www.w3.org/TR/2001/REC-SVG-20010904/DTD/svg10.dtd">
<svg version="1.0" xmlns="http://www.w3.org/2000/svg"
 width="2000.000000pt" height="1000.000000pt" viewBox="0 0 2000.000000 1000.000000"
 preserveAspectRatio="xMidYMid meet">

<g transform="translate(0.000000,1000.000000) scale(0.100000,-0.100000)"
fill="#000000" stroke="none">
<path d="M214 9972 c-78 -27 -142 -88 -182 -172 -16 -33 -17 -289 -20 -3655
-2 -2604 0 -3659 8 -3760 34 -430 121 -759 286 -1083 332 -650 912 -1075 1680
-1231 328 -66 -433 -61 9102 -61 7915 0 8652 1 8696 16 60 21 147 100 177 161
l24 48 0 3700 c0 3520 -1 3707 -18 3840 -55 422 -181 789 -380 1112 -173 279
-448 550 -728 718 -317 189 -636 299 -1059 362 -108 16 -626 18 -8825 20
-8317 2 -8712 2 -8761 -15z m17121 -1089 c446 -67 853 -276 1161 -595 290
-300 477 -684 541 -1106 19 -129 22 -413 5 -526 -20 -133 -77 -212 -192 -264
-147 -68 -330 2 -406 156 -17 33 -19 58 -16 222 3 201 -8 331 -39 453 -67 265
-191 479 -385 666 -199 192 -424 309 -692 361 -275 53 -508 30 -791 -80 -108
-41 -142 -50 -194 -50 -172 0 -294 117 -305 291 -8 129 40 223 143 283 164 97
481 186 735 206 121 10 306 3 435 -17z m-135 -1188 c354 -86 627 -356 727
-720 24 -87 27 -118 28 -245 0 -139 -1 -148 -29 -207 -55 -121 -157 -187 -286
-188 -95 0 -168 33 -234 106 -60 66 -76 119 -76 244 0 194 -68 309 -224 381
-83 38 -164 41 -261 10 -132 -42 -168 -47 -227 -35 -105 23 -182 83 -226 179
-74 159 -6 336 161 418 180 88 427 110 647 57z m-14089 -45 c139 -26 263 -123
327 -257 l37 -78 -2 -265 c-1 -146 -4 -311 -8 -367 l-6 -103 689 0 c649 0 694
-1 751 -19 149 -46 267 -168 305 -316 59 -223 -53 -454 -270 -562 l-78 -38
-712 -3 -712 -3 -6 -72 c-10 -121 -31 -773 -30 -927 0 -114 5 -164 22 -233 81
-326 319 -564 643 -643 61 -15 136 -19 444 -24 398 -7 402 -7 500 -64 62 -37
142 -128 178 -203 30 -65 32 -74 32 -188 0 -118 -1 -121 -37 -198 -53 -110
-128 -186 -237 -240 l-85 -42 -425 0 c-443 0 -462 1 -646 47 -193 47 -383 132
-562 250 -151 101 -362 312 -462 462 -160 241 -254 484 -296 764 -17 112 -19
386 -5 722 5 124 12 307 16 407 l7 182 -290 3 -289 3 -75 37 c-331 164 -350
616 -35 820 110 71 151 78 457 78 l269 0 0 113 c0 247 20 550 40 617 70 234
314 384 551 340z m12624 -1019 c66 -12 172 -37 235 -57 145 -44 388 -164 503
-247 371 -268 618 -648 719 -1108 21 -96 23 -128 23 -429 0 -380 -31 -1310
-46 -1390 -38 -193 -216 -363 -409 -389 -246 -33 -474 128 -520 367 -7 37 -5
170 5 440 43 1141 43 1136 -9 1290 -61 178 -189 347 -341 452 -62 43 -196 104
-270 125 -81 22 -290 31 -384 16 -381 -60 -704 -368 -782 -746 -93 -452 149
-890 574 -1036 81 -28 210 -49 297 -49 149 0 297 -83 381 -212 82 -128 93
-302 26 -442 -59 -125 -156 -214 -284 -262 -66 -25 -74 -26 -238 -21 -479 13
-917 207 -1243 552 -121 128 -209 256 -291 420 -104 210 -154 378 -181 610
-61 539 142 1121 534 1532 324 339 732 545 1196 602 117 15 368 6 505 -18z
m-9341 -130 c98 -48 177 -126 223 -218 25 -52 28 -71 32 -174 1 -64 -7 -409
-19 -765 -29 -839 -25 -945 45 -1130 80 -213 222 -352 430 -421 71 -23 96 -26
220 -27 149 0 180 5 305 55 235 93 407 336 465 654 14 79 31 428 59 1261 13
371 17 416 36 474 93 276 404 416 656 296 130 -62 224 -178 256 -316 12 -52
11 -76 -23 -1015 -26 -740 -37 -854 -109 -1123 -92 -344 -272 -646 -509 -855
-306 -269 -757 -406 -1244 -376 -461 28 -806 171 -1083 447 -230 229 -375 533
-446 937 -21 118 -23 158 -22 440 1 171 6 425 12 565 7 140 16 399 22 575 6
176 15 345 21 375 23 118 121 255 227 317 93 55 167 74 270 70 85 -4 100 -8
176 -46z m3885 30 c148 -46 263 -164 307 -316 13 -47 15 -82 10 -175 -3 -63
-15 -281 -26 -485 -46 -866 -51 -980 -40 -1082 22 -207 90 -383 192 -498 212
-237 608 -284 907 -106 154 91 270 247 341 459 54 162 60 225 95 912 32 647
46 877 55 923 22 108 110 232 214 301 29 19 89 47 132 62 69 23 90 26 166 21
74 -4 99 -10 163 -41 146 -69 242 -204 252 -355 5 -74 -7 -402 -27 -726 -5
-82 -21 -377 -35 -655 -14 -278 -32 -622 -40 -765 -8 -143 -21 -402 -30 -575
-8 -173 -20 -366 -25 -429 -26 -290 -125 -564 -288 -801 -79 -115 -274 -311
-390 -394 -266 -188 -597 -320 -932 -371 -152 -23 -384 -31 -461 -16 -227 45
-387 273 -352 502 38 240 249 428 483 429 186 1 410 45 547 110 212 99 339
236 409 442 23 70 43 178 31 178 -3 0 -24 -16 -46 -35 -113 -94 -281 -175
-419 -201 -392 -75 -837 8 -1157 217 -298 193 -520 491 -639 854 -96 294 -113
528 -80 1090 17 293 31 571 44 850 13 279 20 320 66 413 105 213 358 330 573
263z"/>
</g>
</svg>
